#!OML:ASF H:\Punching\Project 1\Capture day 1\Session 1\female.ASF
:FULLY-SPECIFIED
:DEGREES
1132
root 0.963122 14.735 -3.049 27.7752 -47.4601 -11.4084
lowerback -1.6162 -1.35813 5.01944
upperback -6.19552 -1.88915 -1.35031
thorax -5.75343 -1.27893 -4.15043
lowerneck -0.871574 15.5776 21.5574
upperneck 20.7324 25.4194 -24.4596
head 13.4953 11.632 -8.99826
rclavicle 1.35472e-013 3.97569e-014
rhumerus -8.01418 33.1475 -75.8348
rradius 130.689
rwrist -11.6342
rhand -27.4937 8.36622
rfingers 7.12502
rthumb -0.896887 -21.6116
lclavicle 1.35472e-013 3.97569e-014
lhumerus -12.5414 -13.5741 68.1053
lradius 140.835
lwrist -4.22693
lhand -28.3021 0.640081
lfingers 7.12502
lthumb -1.67766 30.6132
rfemur -11.122 7.33136 20.6854
rtibia 26.3001
rfoot -29.5856 -24.9013
rtoes -10.6789
lfemur -49.9753 8.98935 4.94119
ltibia 42.2931
lfoot -12.0729 29.6816
ltoes 26.8632
1133
root 0.959893 14.7472 -3.07977 27.8329 -47.1776 -11.4774
lowerback -1.61011 -1.43748 5.216
upperback -6.18158 -1.9883 -1.27345
thorax -5.75964 -1.33578 -4.17629
lowerneck -0.908764 15.624 21.5406
upperneck 20.6435 25.4797 -24.4987
head 13.4893 11.6554 -8.98626
rclavicle -1.94809e-014 -1.27222e-014
rhumerus -8.00968 32.9792 -75.6466
rradius 130.731
rwrist -11.8004
rhand -27.6695 8.33953
rfingers 7.12502
rthumb -1.06675 -21.6375
lclavicle -1.94809e-014 -1.27222e-014
lhumerus -12.5354 -13.6401 68.2574
lradius 140.748
lwrist -4.06137
lhand -28.128 0.63936
lfingers 7.12502
lthumb -1.50954 30.6138
rfemur -11.1245 7.23934 20.9841
rtibia 26.197
rfoot -29.5122 -25.0133
rtoes -10.4473
lfemur -50.0757 8.93501 4.63537
ltibia 42.4835
lfoot -13.3335 29.8977
ltoes 27.6544
1134
root 0.956047 14.7613 -3.10743 27.8276 -46.9201 -11.464
lowerback -1.60358 -1.49371 5.32999
upperback -6.17259 -2.0586 -1.21555
thorax -5.76511 -1.37466 -4.1766
lowerneck -0.959106 15.6549 21.5149
upperneck 20.584 25.5147 -24.5105
head 13.4833 11.6669 -8.96883
rclavicle 6.24184e-014 4.45278e-014
rhumerus -8.00042 32.7934 -75.4806
rradius 130.784
rwrist -12.0628
rhand -27.8058 8.23186
rfingers 7.12502
rthumb -1.19839 -21.7445
lclavicle 6.24184e-014 4.45278e-014
lhumerus -12.4975 -13.7609 68.3866
lradius 140.656
lwrist -3.99325
lhand -28.0432 0.728316
lfingers 7.12502
lthumb -1.4276 30.7033
rfemur -11.1148 7.18681 21.2141
rtibia 26.0857
rfoot -29.4369 -25.1811
rtoes -10.2147
lfemur -50.0963 8.3701 4.63377
ltibia 42.4802
lfoot -14.913 30.2905
ltoes 29.2017
1135
root 0.951867 14.7772 -3.13228 27.7596 -46.7015 -11.3607
lowerback -1.59201 -1.53016 5.34507
upperback -6.16998 -2.10462 -1.17812
thorax -5.77339 -1.3972 -4.14351
lowerneck -1.02035 15.6782 21.4958
upperneck 20.5436 25.539 -24.5152
head 13.484 11.6734 -8.95274
rclavicle 5.75482e-014 -6.36111e-015
rhumerus -7.9781 32.605 -75.3375
rradius 130.85
rwrist -12.4101
rhand -27.9147 8.06204
rfingers 7.12502
rthumb -1.30356 -21.9137
lclavicle 5.75482e-014 -6.36111e-015
lhumerus -12.4205 -13.8628 68.4619
lradius 140.56
lwrist -3.93625
lhand -27.9867 0.765482
lfingers 7.12502
lthumb -1.37309 30.7408
rfemur -11.1152 7.15238 21.3587
rtibia 25.9935
rfoot -29.3685 -25.3676
rtoes -9.99172
lfemur -50.0292 7.22843 4.99219
ltibia 42.2843
lfoot -16.9367 30.9135
ltoes 31.4478
1136
root 0.947728 14.7938 -3.15444 27.6396 -46.5233 -11.1745
lowerback -1.57957 -1.54482 5.27295
upperback -6.17397 -2.12385 -1.16362
thorax -5.7826 -1.40281 -4.08646
lowerneck -1.0941 15.6945 21.4893
upperneck 20.5177 25.5549 -24.5219
head 13.4934 11.676 -8.94181
rclavicle 3.79679e-014 -1.43125e-014
rhumerus -7.93794 32.4184 -75.2187
rradius 130.919
rwrist -12.8007
rhand -28.0073 7.86251
rfingers 7.12502
rthumb -1.39299 -22.1127
lclavicle 3.79679e-014 -1.43125e-014
lhumerus -12.3213 -13.9552 68.4836
lradius 140.463
lwrist -3.94403
lhand -27.9728 0.77135
lfingers 7.12502
lthumb -1.35965 30.7468
rfemur -11.1386 7.13347 21.4165
rtibia 25.9387
rfoot -29.3302 -25.5506
rtoes -9.75942
lfemur -49.8965 5.53097 5.70944
ltibia 41.9405
lfoot -19.5812 31.6661
ltoes 34.2122
1137
root 0.943977 14.8099 -3.17405 27.4808 -46.3789 -10.9153
lowerback -1.57087 -1.53652 5.12871
upperback -6.18601 -2.11462 -1.16902
thorax -5.79218 -1.39136 -4.01097
lowerneck -1.17745 15.7046 21.4876
upperneck 20.5006 25.5652 -24.5378
head 13.5098 11.6751 -8.93719
rclavicle 1.39149e-014 -2.70347e-014
rhumerus -7.88395 32.2414 -75.111
rradius 130.972
rwrist -13.1614
rhand -28.1663 7.72233
rfingers 7.12502
rthumb -1.5465 -22.2518
lclavicle 1.39149e-014 -2.70347e-014
lhumerus -12.2129 -14.0542 68.4559
lradius 140.373
lwrist -4.04728
lhand -28.0421 0.848725
lfingers 7.12502
lthumb -1.42662 30.8237
rfemur -11.1943 7.11549 21.3934
rtibia 25.9282
rfoot -29.3218 -25.7169
rtoes -9.53593
lfemur -49.7473 3.42912 6.69895
ltibia 41.5215
lfoot -22.8484 32.2911
ltoes 37.1528
1138
root 0.940834 14.8247 -3.19124 27.3069 -46.2518 -10.6089
lowerback -1.57001 -1.5089 4.93917
upperback -6.20815 -2.08137 -1.18784
thorax -5.80384 -1.36636 -3.92519
lowerneck -1.26291 15.7096 21.4892
upperneck 20.4859 25.5712 -24.5633
head 13.5289 11.672 -8.93856
rclavicle -1.11518e-013 -1.59028e-014
rhumerus -7.81066 32.0785 -75.0104
rradius 131.008
rwrist -13.4733
rhand -28.3779 7.65087
rfingers 7.12502
rthumb -1.75089 -22.3217
lclavicle -1.11518e-013 -1.59028e-014
lhumerus -12.1158 -14.1439 68.3827
lradius 140.303
lwrist -4.22646
lhand -28.1453 0.960501
lfingers 7.12502
lthumb -1.52629 30.9348
rfemur -11.2813 7.0947 21.3122
rtibia 25.9527
rfoot -29.3437 -25.8641
rtoes -9.32078
lfemur -49.6466 1.24541 7.78065
ltibia 41.1098
lfoot -26.2647 32.5543
ltoes 39.7897
1139
root 0.938213 14.8381 -3.206 27.1355 -46.1202 -10.2773
lowerback -1.58392 -1.46035 4.73635
upperback -6.23793 -2.02155 -1.21725
thorax -5.81244 -1.32787 -3.84448
lowerneck -1.35865 15.7062 21.4822
upperneck 20.4771 25.566 -24.5894
head 13.548 11.6625 -8.94166
rclavicle -1.38155e-014 -3.18055e-015
rhumerus -7.72193 31.9148 -74.9001
rradius 131.028
rwrist -13.716
rhand -28.6402 7.66687
rfingers 7.12502
rthumb -2.00418 -22.3035
lclavicle -1.38155e-014 -3.18055e-015
lhumerus -12.0287 -14.2323 68.2722
lradius 140.259
lwrist -4.44792
lhand -28.2776 1.15883
lfingers 7.12502
lthumb -1.654 31.1322
rfemur -11.3875 7.0647 21.1974
rtibia 25.9895
rfoot -29.3981 -25.992
rtoes -9.08315
lfemur -49.6444 -0.628445 8.73334
ltibia 40.7763
lfoot -29.0461 32.4656
ltoes 41.718
1140
root 0.935939 14.8504 -3.21855 26.9889 -45.9605 -9.94922
lowerback -1.61509 -1.39719 4.54797
upperback -6.27683 -1.9428 -1.24832
thorax -5.82012 -1.28097 -3.77468
lowerneck -1.45803 15.6946 21.4608
upperneck 20.4734 25.5488 -24.6095
head 13.5627 11.6467 -8.94331
rclavicle 7.22582e-014 2.70347e-014
rhumerus -7.61646 31.7558 -74.7811
rradius 131.031
rwrist -13.8806
rhand -28.9353 7.75726
rfingers 7.12502
rthumb -2.28922 -22.2102
lclavicle 7.22582e-014 2.70347e-014
lhumerus -11.961 -14.2978 68.131
lradius 140.245
lwrist -4.64605
lhand -28.4023 1.40446
lfingers 7.12502
lthumb -1.77446 31.3768
rfemur -11.4975 7.02488 21.0802
rtibia 26.0084
rfoot -29.4703 -26.1109
rtoes -8.83164
lfemur -49.766 -1.83695 9.35901
ltibia 40.5689
lfoot -30.4537 32.2781
ltoes 42.7043
1141
root 0.933756 14.8614 -3.22871 26.8769 -45.7525 -9.64423
lowerback -1.66466 -1.32307 4.39989
upperback -6.32065 -1.84954 -1.28163
thorax -5.82346 -1.22901 -3.7308
lowerneck -1.57077 15.6738 21.4352
upperneck 20.481 25.5157 -24.6173
head 13.5766 11.6233 -8.94298
rclavicle 7.46436e-014 1.59028e-014
rhumerus -7.49542 31.5901 -74.6544
rradius 131.023
rwrist -13.973
rhand -29.2231 7.8733
rfingers 7.12502
rthumb -2.56715 -22.091
lclavicle 7.46436e-014 1.59028e-014
lhumerus -11.8995 -14.3173 67.9459
lradius 140.261
lwrist -4.74207
lhand -28.4827 1.63473
lfingers 7.12502
lthumb -1.8521 31.6064
rfemur -11.5909 6.96917 20.9837
rtibia 25.9857
rfoot -29.5485 -26.2293
rtoes -8.58058
lfemur -50.013 -2.22853 9.56738
ltibia 40.5062
lfoot -30.1595 32.2427
ltoes 42.7124
1142
root 0.93149 14.8705 -3.23664 26.805 -45.4756 -9.38213
lowerback -1.72534 -1.23587 4.3151
upperback -6.3706 -1.73789 -1.31293
thorax -5.82819 -1.17127 -3.7212
lowerneck -1.69356 15.6358 21.3817
upperneck 20.5075 25.4515 -24.5896
head 13.5786 11.585 -8.93176
rclavicle -6.35117e-014 1.59028e-014
rhumerus -7.37979 31.3996 -74.5187
rradius 131.014
rwrist -14.0021
rhand -29.4559 7.95909
rfingers 7.12502
rthumb -2.79202 -22.0024
lclavicle -6.35117e-014 1.59028e-014
lhumerus -11.8424 -14.2973 67.7337
lradius 140.3
lwrist -4.70625
lhand -28.5129 1.829
lfingers 7.12502
lthumb -1.88124 31.8005
rfemur -11.6489 6.91327 20.9329
rtibia 25.9101
rfoot -29.6353 -26.3654
rtoes -8.31412
lfemur -50.3852 -1.87775 9.39642
ltibia 40.5832
lfoot -28.3116 32.3666
ltoes 41.8527
1143
root 0.92897 14.8768 -3.2424 26.7679 -45.1193 -9.16736
lowerback -1.79192 -1.14345 4.29695
upperback -6.42068 -1.61816 -1.34351
thorax -5.8318 -1.11289 -3.74862
lowerneck -1.83651 15.5855 21.3226
upperneck 20.5581 25.363 -24.5302
head 13.5799 11.5353 -8.91242
rclavicle -2.21645e-014 1.74931e-014
rhumerus -7.26544 31.1895 -74.3891
rradius 131.001
rwrist -13.9709
rhand -29.6332 7.99213
rfingers 7.12502
rthumb -2.96322 -21.967
lclavicle -2.21645e-014 1.74931e-014
lhumerus -11.7742 -14.2113 67.4702
lradius 140.351
lwrist -4.50425
lhand -28.4807 1.96232
lfingers 7.12502
lthumb -1.85013 31.934
rfemur -11.6609 6.85694 20.9385
rtibia 25.7831
rfoot -29.7199 -26.5378
rtoes -8.07454
lfemur -50.8813 -0.957561 8.93221
ltibia 40.7793
lfoot -25.2763 32.4765
ltoes 40.3014
